<?xml version="1.0" standalone="no"?><!DOCTYPE svg PUBLIC "-//W3C//DTD SVG 1.1//EN" "http://www.w3.org/Graphics/SVG/1.1/DTD/svg11.dtd"><svg t="1765958042172" class="icon" viewBox="0 0 1024 1024" version="1.1" xmlns="http://www.w3.org/2000/svg" p-id="1599" xmlns:xlink="http://www.w3.org/1999/xlink" width="200" height="200"><path d="M512 0C229.199448 0 0 229.199448 0 512S229.199448 1024 512 1024 1024 794.800552 1024 512 794.800552 0 512 0z m205.294345 666.906483a36.016552 36.016552 0 0 1-50.988138 50.776276l-154.306207-154.659311-154.306207 154.659311c-6.991448 7.13269-16.278069 10.593103-25.494069 10.593103a36.016552 36.016552 0 0 1-25.494069-61.40469L461.153103 512l-154.482758-154.906483a36.016552 36.016552 0 0 1 50.988138-50.776276l154.306207 154.659311 154.306207-154.765242a36.016552 36.016552 0 0 1 50.988137 50.776276L562.846897 512l154.482758 154.906483z" fill="#707070" p-id="1600"></path></svg>