<svg width="285" height="285" viewBox="0 0 285 285" fill="none" xmlns="http://www.w3.org/2000/svg">
<g clip-path="url(#clip0_2_16)">
<path d="M245.319 94.7595C239.809 43.1745 195.409 4 142.46 4C89.5103 4 45.1108 43.1745 39.6008 94.7595C39.1171 98.7323 38.8667 102.748 38.858 106.755C38.6708 124.802 42.6892 142.644 50.5948 158.867C54.2221 166.191 58.238 173.325 62.5994 180.251L127.778 276.693C130.835 281.737 136.38 284.82 142.373 284.82C148.35 284.82 153.894 281.737 156.952 276.702L222.415 180.303C226.708 173.247 230.827 166.105 234.42 158.781C244.126 138.93 247.91 116.704 245.319 94.7595Z" fill="#51BBA8"/>
<path d="M193.089 90.0016C192.882 89.668 192.412 89.6148 192.13 89.8894C187.25 94.6931 151.276 130.106 151.268 130.115C146.146 135.157 137.842 135.157 132.72 130.115C127.598 125.073 127.598 116.898 132.72 111.856C132.72 111.856 147.977 96.8511 157.653 87.3334C162.639 82.429 165.443 75.7757 165.443 68.8392L165.451 37.6074C165.451 37.0665 164.788 36.7974 164.401 37.1786L129.924 71.1009C129.537 71.4821 128.874 71.2131 128.874 70.6722V51.8305C128.874 51.2896 128.211 51.0205 127.823 51.4016L99.0664 79.7189H99.0835C76.0688 102.896 76.308 140.098 99.8009 162.986C123.22 185.796 161.275 185.651 184.52 162.67C204.494 142.925 207.35 112.736 193.089 90.0016Z" fill="white"/>
</g>
<defs>
<clipPath id="clip0_2_16">
<rect width="285" height="285" fill="white"/>
</clipPath>
</defs>
</svg>
